<?xml version="1.0" encoding="UTF-8" standalone="no"?>
<svg
   xmlns:dc="http://purl.org/dc/elements/1.1/"
   xmlns:cc="http://creativecommons.org/ns#"
   xmlns:rdf="http://www.w3.org/1999/02/22-rdf-syntax-ns#"
   xmlns:svg="http://www.w3.org/2000/svg"
   xmlns="http://www.w3.org/2000/svg"
   xmlns:sodipodi="http://sodipodi.sourceforge.net/DTD/sodipodi-0.dtd"
   xmlns:inkscape="http://www.inkscape.org/namespaces/inkscape"
   width="50"
   height="40"
   viewBox="0 0 13.229167 10.583333"
   version="1.1"
   id="svg9941"
   inkscape:version="1.0.1 (3bc2e813f5, 2020-09-07)"
   sodipodi:docname="binary.svg">
  <defs
     id="defs9935" />
  <sodipodi:namedview
     id="base"
     pagecolor="#ffffff"
     bordercolor="#666666"
     borderopacity="1.0"
     inkscape:pageopacity="0.0"
     inkscape:pageshadow="2"
     inkscape:zoom="19.536181"
     inkscape:cx="20.929005"
     inkscape:cy="31.151415"
     inkscape:document-units="mm"
     inkscape:current-layer="layer1"
     inkscape:document-rotation="0"
     showgrid="false"
     units="px"
     showguides="true"
     inkscape:guide-bbox="true"
     inkscape:window-width="1366"
     inkscape:window-height="705"
     inkscape:window-x="-8"
     inkscape:window-y="-8"
     inkscape:window-maximized="1" />
  <metadata
     id="metadata9938">
    <rdf:RDF>
      <cc:Work
         rdf:about="">
        <dc:format>image/svg+xml</dc:format>
        <dc:type
           rdf:resource="http://purl.org/dc/dcmitype/StillImage" />
        <dc:title />
      </cc:Work>
    </rdf:RDF>
  </metadata>
  <g
     inkscape:label="Layer 1"
     inkscape:groupmode="layer"
     id="layer1">
    <path
       id="path9888"
       style="fill:#ffeeaa;fill-opacity:1;stroke:none;stroke-width:0.154027;stroke-opacity:1"
       d="m 6.3603048,3.9444254 a 1.6652942,1.9212426 0 0 0 0.1612462,0.022829 v 1.289187 H 2.9396027 V 5.5509877 6.7416664 H 3.1883892 V 5.5509877 h 6.780341 V 6.7416664 H 10.217517 V 5.5509877 5.2564414 H 6.7703378 V 3.966796 A 1.6652942,1.9212426 0 0 0 6.9262544,3.944425 Z" />
    <path
       style="fill:#ffeeaa;fill-opacity:1;stroke-width:0.0284037"
       d="M 5.2390992,3.5094217 C 5.0638263,3.3201059 4.8816164,2.9730277 4.8223965,2.715675 c -0.046122,-0.2004338 -0.046122,-0.5948684 0,-0.7953021 C 4.9389274,1.4139631 5.3284408,0.92498291 5.7898519,0.70586617 6.0906824,0.56300664 6.276937,0.51931832 6.5851541,0.51931832 c 0.3082169,0 0.4944715,0.0436886 0.795302,0.18654785 C 7.7216688,0.86790264 8.0352754,1.1815091 8.1973117,1.5227218 8.3446218,1.8329241 8.3848956,2.0130844 8.3814468,2.3464275 8.3767244,2.8024554 8.1914486,3.2583625 7.8902864,3.5549961 L 7.7547588,3.6884859 7.4042864,3.5118507 C 7.2115267,3.4147011 7.0314463,3.3094374 7.0041078,3.2779312 6.9186418,3.1794352 6.9394878,2.982798 7.0545408,2.802202 c 0.054277,-0.085197 0.098686,-0.1710325 0.098686,-0.1907453 0,-0.019713 0.039305,-0.07605 0.087344,-0.1251934 0.084933,-0.086885 0.086917,-0.09495 0.071852,-0.2921167 C 7.303902,2.0826261 7.2868818,1.8564858 7.2746002,1.6916126 7.2515613,1.3823291 7.2167385,1.2878628 7.0843668,1.1755461 6.9096332,1.0272856 6.4329051,0.99939851 6.1784965,1.1225552 5.9790218,1.2191192 5.9227781,1.3326681 5.8958696,1.6931433 5.8836256,1.8571743 5.8666026,2.074915 5.8580416,2.1770114 5.8427876,2.35892 5.8456496,2.3688589 6.0007876,2.6727913 c 0.251447,0.4926118 0.232477,0.5572432 -0.2407061,0.8200922 -0.1866517,0.1036832 -0.3444055,0.188515 -0.350564,0.188515 -0.00616,0 -0.082846,-0.07739 -0.1704183,-0.1719768 z"
       id="path849" />
    <path
       style="fill:#ffeeaa;fill-opacity:1;stroke-width:0.0284038"
       d="M 1.7828634,9.8294195 C 1.6075905,9.6401038 1.4253806,9.2930256 1.3661607,9.0356729 c -0.046122,-0.2004338 -0.046122,-0.5948684 0,-0.7953021 C 1.4826916,7.733961 1.872205,7.2449808 2.3336161,7.0258641 2.6344466,6.8830045 2.8207012,6.8393162 3.1289183,6.8393162 c 0.3082169,0 0.4944715,0.043689 0.795302,0.1865479 C 4.265433,7.1879005 4.5790396,7.501507 4.741076,7.8427197 4.888386,8.152922 4.9286598,8.3330823 4.9252109,8.6664254 4.9204909,9.1224533 4.7352129,9.5783604 4.4340506,9.874994 L 4.2985231,10.008484 3.9480506,9.8318487 C 3.7552909,9.734699 3.5752105,9.6294353 3.547872,9.5979292 3.462406,9.4994332 3.483252,9.3027959 3.598305,9.1221999 3.652582,9.0370029 3.696991,8.9511674 3.696991,8.9314546 c 0,-0.019713 0.039305,-0.07605 0.087344,-0.1251934 C 3.869268,8.7193762 3.871252,8.7113112 3.856187,8.5141445 3.8476662,8.402624 3.830646,8.1764837 3.8183644,8.0116105 3.7953255,7.702327 3.7605027,7.6078607 3.628131,7.495544 3.4533974,7.3472835 2.9766693,7.3193964 2.7222607,7.4425531 2.522786,7.5391171 2.4665423,7.652666 2.4396338,8.0131412 c -0.012244,0.164031 -0.029267,0.3817717 -0.037828,0.4838681 -0.015254,0.1819086 -0.012392,0.1918475 0.142746,0.4957799 0.251447,0.4926117 0.232477,0.5572433 -0.2407061,0.8200923 -0.1866517,0.1036831 -0.3444055,0.1885145 -0.350564,0.1885145 -0.00616,0 -0.082846,-0.07739 -0.1704183,-0.1719765 z"
       id="path849-2" />
    <path
       style="fill:#ffeeaa;fill-opacity:1;stroke-width:0.0284038"
       d="M 8.8118088,9.802333 C 8.6365359,9.6130173 8.454326,9.2659391 8.3951061,9.0085864 c -0.046122,-0.2004338 -0.046122,-0.5948684 0,-0.7953021 0.1165309,-0.5064098 0.5060443,-0.99539 0.9674555,-1.2145068 0.300831,-0.1428595 0.487086,-0.1865478 0.7953034,-0.1865478 0.308217,0 0.494471,0.043689 0.795302,0.1865478 0.341212,0.1620365 0.654819,0.475643 0.816855,0.8168557 0.14731,0.3102023 0.187584,0.4903626 0.184135,0.8237057 -0.0047,0.4560279 -0.189998,0.911935 -0.49116,1.2085686 l -0.135528,0.1334897 -0.350472,-0.176635 c -0.19276,-0.09715 -0.37284,-0.2024134 -0.400179,-0.2339195 -0.08547,-0.098496 -0.06462,-0.2951333 0.05043,-0.4757293 0.05428,-0.085197 0.09869,-0.1710325 0.09869,-0.1907453 0,-0.019713 0.0393,-0.07605 0.08734,-0.1251934 0.08493,-0.086885 0.08692,-0.09495 0.07185,-0.2921167 -0.0085,-0.1115205 -0.02554,-0.3376608 -0.03782,-0.502534 C 10.824268,7.6752405 10.789448,7.5807742 10.657074,7.4684575 10.482341,7.320197 10.005613,7.2923099 9.7512036,7.4154665 c -0.199475,0.096564 -0.255718,0.2101129 -0.282627,0.5705881 -0.01224,0.164031 -0.02927,0.3817717 -0.03783,0.4838681 -0.01525,0.1819086 -0.01239,0.1918475 0.142746,0.4957799 0.251447,0.4926117 0.232477,0.5572433 -0.240706,0.8200923 -0.1866522,0.1036831 -0.344406,0.1885148 -0.3505645,0.1885148 -0.00616,0 -0.082846,-0.07739 -0.1704183,-0.1719768 z"
       id="path849-29" />
  </g>
</svg>
