<?xml version="1.0" encoding="UTF-8" standalone="no"?>
<svg
   xmlns:dc="http://purl.org/dc/elements/1.1/"
   xmlns:cc="http://creativecommons.org/ns#"
   xmlns:rdf="http://www.w3.org/1999/02/22-rdf-syntax-ns#"
   xmlns:svg="http://www.w3.org/2000/svg"
   xmlns="http://www.w3.org/2000/svg"
   xmlns:sodipodi="http://sodipodi.sourceforge.net/DTD/sodipodi-0.dtd"
   xmlns:inkscape="http://www.inkscape.org/namespaces/inkscape"
   width="320"
   height="280"
   viewBox="0 0 84.666666 74.083331"
   version="1.1"
   id="svg9941"
   inkscape:version="1.0.1 (3bc2e813f5, 2020-09-07)"
   sodipodi:docname="packages.svg">
  <defs
     id="defs9935" />
  <sodipodi:namedview
     id="base"
     pagecolor="#ffffff"
     bordercolor="#666666"
     borderopacity="1.0"
     inkscape:pageopacity="0.0"
     inkscape:pageshadow="2"
     inkscape:zoom="1.8916477"
     inkscape:cx="140.74417"
     inkscape:cy="146.3183"
     inkscape:document-units="mm"
     inkscape:current-layer="layer1"
     inkscape:document-rotation="0"
     showgrid="false"
     units="px"
     showguides="true"
     inkscape:guide-bbox="true"
     inkscape:window-width="1366"
     inkscape:window-height="705"
     inkscape:window-x="-8"
     inkscape:window-y="-8"
     inkscape:window-maximized="1" />
  <metadata
     id="metadata9938">
    <rdf:RDF>
      <cc:Work
         rdf:about="">
        <dc:format>image/svg+xml</dc:format>
        <dc:type
           rdf:resource="http://purl.org/dc/dcmitype/StillImage" />
        <dc:title></dc:title>
      </cc:Work>
    </rdf:RDF>
  </metadata>
  <g
     inkscape:label="Layer 1"
     inkscape:groupmode="layer"
     id="layer1">
    <path
       style="fill:#808080;stroke-width:0.106648"
       d="m 45.414909,48.019104 c 0.0025,-0.286024 0.05883,-0.794707 0.159713,-1.441831 0.05681,-0.364402 -0.02803,-0.400164 -1.079972,-0.455227 -0.460164,-0.02409 -1.020419,-0.116374 -1.245011,-0.205083 l -0.408349,-0.161288 0.825614,-0.467306 c 1.71756,-0.972153 2.61532,-1.785828 4.302737,-3.899741 l 0.852482,-1.067945 0.374459,0.147902 c 0.641332,0.253311 1.305836,0.757185 1.825515,1.384232 l 0.499587,0.602806 -0.287891,0.584608 c -0.766986,1.557475 -3.331862,3.975542 -5.322126,5.017496 l -0.499359,0.261423 z m 7.171404,2.342495 c -0.493283,-1.521375 -0.699798,-3.812113 -0.51765,-5.741979 0.09578,-1.014774 0.222048,-1.445695 0.490246,-1.67308 0.09337,-0.07917 0.557314,-0.175986 1.030975,-0.215157 0.662227,-0.05477 1.040376,-0.01735 1.63668,0.161941 l 0.775478,0.233162 -0.08726,0.75457 c -0.333117,2.880446 -0.223706,4.716054 0.384483,6.45052 0.118108,0.336829 0.167417,0.647729 0.109575,0.690891 -0.149153,0.11129 -1.016736,-0.375116 -1.586896,-0.889677 -0.258827,-0.233591 -0.532545,-0.425111 -0.60826,-0.425603 -0.07571,-4.88e-4 -0.360776,0.328699 -0.633468,0.731532 -0.272694,0.402834 -0.545906,0.741407 -0.607138,0.752385 -0.06124,0.01098 -0.235275,-0.362298 -0.386761,-0.829505 z M 51.327091,40.66896 c -0.431195,-0.504851 -0.66765,-0.686783 -1.26046,-0.969813 -0.401333,-0.191612 -0.805185,-0.450667 -0.897447,-0.575678 -0.09226,-0.125015 -0.19806,-0.56071 -0.235105,-0.968223 -0.04434,-0.487778 -0.217414,-1.066052 -0.506552,-1.692503 -0.426946,-0.925025 -0.43378,-0.964513 -0.24493,-1.415399 0.106883,-0.25509 0.339377,-0.728627 0.516723,-1.052276 0.212171,-0.387185 0.359029,-0.805331 0.429383,-1.222565 0.149461,-0.886339 0.408587,-1.165831 1.408534,-1.519201 0.510815,-0.180519 0.981537,-0.444155 1.304577,-0.730653 0.79492,-0.704998 1.040408,-0.759519 2.104591,-0.46741 0.746016,0.204774 1.055915,0.231347 1.699136,0.145693 1.063958,-0.14168 1.504946,0.03405 2.189082,0.872269 0.417675,0.511784 0.643448,0.690845 1.2512,0.992332 0.917726,0.455257 1.174882,0.795665 1.285663,1.701891 0.114681,0.938127 0.181262,1.152727 0.544678,1.755561 0.422975,0.701636 0.382265,1.142621 -0.184917,2.003071 -0.363687,0.551736 -0.425419,0.713679 -0.549631,1.441833 -0.176366,1.033916 -0.347198,1.229388 -1.399386,1.601223 -0.523437,0.18498 -0.970588,0.446973 -1.413172,0.828003 -0.356096,0.306572 -0.76905,0.579789 -0.917677,0.60715 -0.148628,0.02736 -0.618728,-0.06068 -1.04467,-0.195653 -0.618849,-0.196102 -0.944691,-0.229979 -1.621854,-0.168632 -1.167205,0.105744 -1.726941,-0.115409 -2.457746,-0.971093 z m 3.66963,-0.636378 c 0.965541,-0.07867 2.011309,-0.515599 2.671424,-1.116135 0.456095,-0.41493 0.548299,-0.564153 0.898866,-1.454724 0.460495,-1.169964 0.465214,-1.693457 0.02541,-2.84684 -0.904089,-2.37096 -3.660575,-3.438709 -5.989668,-2.320145 -0.988839,0.474896 -1.564368,1.079071 -1.945835,2.04269 -0.479022,1.210066 -0.313465,2.605406 0.442707,3.731091 0.618375,0.920554 1.136446,1.319155 2.211381,1.701419 0.78969,0.280825 1.020744,0.316822 1.685714,0.262647 z m -2.122583,-2.020025 c -0.074,-0.09392 -0.159384,-0.437447 -0.189737,-0.763389 -0.03035,-0.325942 -0.164351,-0.834326 -0.297772,-1.129743 -0.284574,-0.630089 -0.231296,-0.864328 0.195343,-0.858847 0.366483,0.0047 0.679723,0.209963 0.945772,0.619745 l 0.193621,0.298218 0.46082,-0.361008 c 0.965071,-0.756037 2.725849,-1.361716 3.299722,-1.13505 0.414512,0.163723 0.17163,0.478988 -0.686522,0.891121 -1.075071,0.51631 -1.655091,0.926416 -2.573573,1.81966 -0.920024,0.894743 -1.074656,0.965801 -1.347674,0.619293 z"
       id="path1015-0" />
    <g
       id="g982"
       transform="matrix(0.85838773,0,0,0.85838773,6.5788578,4.3096379)">
      <rect
         style="opacity:0.998;fill:#ffeeaa;fill-opacity:1;stroke-width:2.20367"
         id="rect933"
         width="39.722866"
         height="61.542469"
         x="-3.3145614"
         y="14.172856"
         transform="rotate(-17.193383)" />
      <rect
         style="opacity:0.998;fill:#ffeeaa;fill-opacity:0.726908;stroke-width:2.20367"
         id="rect933-54"
         width="39.722866"
         height="61.542469"
         x="45.075005"
         y="-9.4001837"
         transform="rotate(16.448749)" />
    </g>
    <rect
       style="opacity:0.998;fill:#333333;fill-opacity:1;stroke-width:1.565"
       id="rect984"
       width="21.539864"
       height="9.23137"
       x="7.9134436"
       y="23.227104"
       transform="rotate(-17.402704)" />
    <rect
       style="opacity:0.998;fill:#999999;fill-opacity:1;stroke-width:1.565"
       id="rect984-0"
       width="21.539864"
       height="9.23137"
       x="52.368683"
       y="-0.76871371"
       transform="rotate(17.232491)" />
    <path
       style="fill:#808080;stroke-width:0.104277"
       d="m 31.207623,48.576915 c -0.176526,-0.216928 -0.451364,-0.635114 -0.779014,-1.185326 -0.184503,-0.309831 -0.270692,-0.283844 -1.097157,0.330794 -0.361531,0.268871 -0.840968,0.548812 -1.065416,0.622093 l -0.408088,0.133238 0.330234,-0.866826 c 0.686999,-1.803295 0.855527,-2.975938 0.807705,-5.620186 l -0.02416,-1.335873 0.374219,-0.12218 c 0.64092,-0.209258 1.455567,-0.244292 2.237984,-0.09625 l 0.752168,0.142323 0.14784,0.619775 c 0.39386,1.651166 -0.02935,5.071723 -0.878164,7.097665 l -0.21297,0.508308 z m 6.861164,-2.708933 c -1.32034,-0.837945 -2.904596,-2.434089 -3.971108,-4.000901 -0.560798,-0.823872 -0.734484,-1.227115 -0.674351,-1.565613 0.02094,-0.117849 0.309899,-0.48012 0.642138,-0.805043 0.464506,-0.454274 0.772592,-0.661953 1.33344,-0.898864 l 0.729366,-0.308098 0.40492,0.622625 c 1.545714,2.37677 2.772982,3.690758 4.312751,4.617496 0.29902,0.179971 0.53006,0.383326 0.513424,0.451904 -0.04291,0.17683 -0.999573,0.35168 -1.749843,0.319824 -0.340592,-0.01447 -0.666156,0.01204 -0.723477,0.05889 -0.05732,0.04685 -0.06665,0.472532 -0.02075,0.945948 0.0459,0.473419 0.05135,0.898772 0.01209,0.945229 -0.03926,0.04646 -0.403132,-0.12607 -0.808601,-0.3834 z m -6.993571,-6.513259 c -0.639573,-0.11122 -0.931097,-0.100737 -1.554017,0.05588 -0.421716,0.10603 -0.887395,0.162843 -1.034839,0.126254 -0.147447,-0.03659 -0.49886,-0.29869 -0.780924,-0.582445 -0.337619,-0.339647 -0.828619,-0.667144 -1.437064,-0.95853 -0.898438,-0.430264 -0.928213,-0.455736 -1.067228,-0.913045 -0.07862,-0.258748 -0.198896,-0.760334 -0.267215,-1.114656 -0.08172,-0.423886 -0.231939,-0.83035 -0.439192,-1.188412 -0.44027,-0.760641 -0.419467,-1.132719 0.113102,-2.022483 0.272058,-0.454531 0.462084,-0.946645 0.526646,-1.363862 0.158869,-1.026667 0.30972,-1.220834 1.293249,-1.664611 0.689476,-0.311099 0.939406,-0.484376 1.370335,-0.950056 0.712802,-0.770283 1.154473,-0.913007 2.192438,-0.708518 0.633717,0.124871 0.915407,0.11889 1.56109,-0.03315 0.975002,-0.229579 1.380958,-0.133639 2.029596,0.479663 0.671472,0.63489 0.855455,0.754959 1.505103,0.982235 0.756119,0.264524 1.000509,0.621981 1.110085,1.623663 0.07026,0.642296 0.124782,0.802744 0.485404,1.428522 0.512054,0.888548 0.505333,1.14229 -0.05506,2.078541 -0.278779,0.465764 -0.452082,0.941938 -0.5477,1.5049 -0.07693,0.452951 -0.217484,0.916248 -0.312336,1.029551 -0.09485,0.113306 -0.503756,0.340211 -0.908676,0.504239 -0.588308,0.238314 -0.8548,0.416033 -1.326447,0.884579 -0.812962,0.807621 -1.372384,0.990202 -2.456383,0.80167 z m 2.366352,-2.767973 c 0.677993,-0.661455 1.192951,-1.642717 1.315465,-2.506645 0.08465,-0.596916 0.061,-0.766789 -0.230467,-1.656048 -0.382957,-1.168208 -0.70591,-1.565347 -1.75646,-2.159545 -2.15957,-1.221468 -4.901191,-0.306254 -5.957364,1.988706 -0.448409,0.974346 -0.504959,1.788258 -0.191191,2.751794 0.394018,1.209959 1.388967,2.157404 2.660468,2.533426 1.039798,0.307502 1.678521,0.284525 2.726378,-0.09807 0.769796,-0.28107 0.966233,-0.398075 1.433172,-0.853617 z M 30.58334,36.389523 c -0.114305,-0.02457 -0.392856,-0.229993 -0.619005,-0.456499 -0.226147,-0.226506 -0.644132,-0.525749 -0.928853,-0.664985 -0.607277,-0.296972 -0.713256,-0.506586 -0.388573,-0.768556 0.278901,-0.225033 0.642792,-0.265844 1.098714,-0.123212 l 0.331798,0.1038 0.121839,-0.55926 c 0.255161,-1.171223 1.203278,-2.725515 1.776783,-2.912761 0.414246,-0.135249 0.427986,0.253636 0.03883,1.09921 -0.487512,1.059315 -0.668487,1.729892 -0.80299,2.975375 -0.134729,1.247575 -0.206849,1.397527 -0.628553,1.306888 z"
       id="path1015" />
  </g>
</svg>
