<?xml version="1.0" encoding="UTF-8" standalone="no"?>
<svg
   xmlns:dc="http://purl.org/dc/elements/1.1/"
   xmlns:cc="http://creativecommons.org/ns#"
   xmlns:rdf="http://www.w3.org/1999/02/22-rdf-syntax-ns#"
   xmlns:svg="http://www.w3.org/2000/svg"
   xmlns="http://www.w3.org/2000/svg"
   xmlns:sodipodi="http://sodipodi.sourceforge.net/DTD/sodipodi-0.dtd"
   xmlns:inkscape="http://www.inkscape.org/namespaces/inkscape"
   width="100"
   height="80"
   viewBox="0 0 26.458334 21.166666"
   version="1.1"
   id="svg9941"
   inkscape:version="1.0.1 (3bc2e813f5, 2020-09-07)"
   sodipodi:docname="binary.svg"
   inkscape:export-filename="F:\0-0-0-1-PROJECT-2022\TRONXSPEED_NEW\public\assets\img\binary.png"
   inkscape:export-xdpi="53.333302"
   inkscape:export-ydpi="53.333302">
  <defs
     id="defs9935" />
  <sodipodi:namedview
     id="base"
     pagecolor="#ffffff"
     bordercolor="#666666"
     borderopacity="1.0"
     inkscape:pageopacity="0.0"
     inkscape:pageshadow="2"
     inkscape:zoom="2.5559506"
     inkscape:cx="-2.0863498"
     inkscape:cy="43.350059"
     inkscape:document-units="mm"
     inkscape:current-layer="layer1"
     inkscape:document-rotation="0"
     showgrid="false"
     units="px"
     showguides="true"
     inkscape:guide-bbox="true"
     inkscape:window-width="1366"
     inkscape:window-height="705"
     inkscape:window-x="-8"
     inkscape:window-y="-8"
     inkscape:window-maximized="1" />
  <metadata
     id="metadata9938">
    <rdf:RDF>
      <cc:Work
         rdf:about="">
        <dc:format>image/svg+xml</dc:format>
        <dc:type
           rdf:resource="http://purl.org/dc/dcmitype/StillImage" />
        <dc:title></dc:title>
      </cc:Work>
    </rdf:RDF>
  </metadata>
  <g
     inkscape:label="Layer 1"
     inkscape:groupmode="layer"
     id="layer1">
    <g
       id="g925"
       transform="matrix(0.33272405,0,0,0.31362625,-3.4410791,-0.2155791)"
       style="fill:#ffeeaa;fill-opacity:1">
      <path
         id="path9888"
         style="opacity:1;fill:#ffeeaa;fill-opacity:1;stroke:none;stroke-width:1.07174;stroke-opacity:1"
         d="m 47.929052,24.057875 a 12.568023,12.325255 0 0 0 1.21693,0.146451 v 8.270462 H 22.112916 v 1.889589 7.638503 h 1.877599 v -7.638503 h 51.171429 v 7.638503 h 1.877601 V 34.364377 32.474788 H 51.023583 v -8.2734 a 12.568023,12.325255 0 0 0 1.176707,-0.143513 z" />
      <path
         style="fill:#ffeeaa;fill-opacity:1;stroke-width:0.0555312"
         d="m 37.468276,23.406544 c 0.116338,-0.798359 0.594792,-1.79903 1.156385,-2.418527 0.5758,-0.635165 1.188652,-0.99697 2.292756,-1.353576 0.350617,-0.113237 0.662761,-0.282509 1.30547,-0.707924 0.464576,-0.307506 1.324241,-0.864611 1.910373,-1.238016 l 1.065689,-0.678923 0.05478,-0.366577 0.05478,-0.366579 0.451425,-0.216435 c 0.248279,-0.119036 0.631254,-0.259512 0.851056,-0.312158 0.219797,-0.05267 0.429605,-0.10479 0.46624,-0.115871 0.04073,-0.01233 0.0666,-0.121774 0.0666,-0.281705 0,-0.202153 -0.092,-0.481883 -0.405042,-1.23161 -0.589233,-1.411155 -0.708904,-1.760078 -0.868243,-2.531429 -0.135256,-0.654776 -0.150489,-0.693353 -0.274191,-0.694471 -0.153847,-0.0013 -0.23323,-0.155316 -0.517336,-1.003155 C 44.9328,9.4531963 44.889854,9.234693 44.885214,8.9033465 44.879634,8.4910763 44.884665,8.4727771 45.051608,8.3211426 45.211144,8.176241 45.220079,8.1498905 45.171786,7.9669866 45.056058,7.5287409 45.004598,6.5469839 45.065725,5.9436897 c 0.24455,-2.4138214 1.509281,-4.0567338 3.550752,-4.6125108 0.741311,-0.2018169 2.12169,-0.109214 3.216403,0.2157694 1.430534,0.4246786 2.402099,1.4345079 2.720529,2.8276748 0.126472,0.5533389 0.263401,1.769743 0.263401,2.3399849 0,0.2386891 -0.03494,0.6323941 -0.07767,0.874898 l -0.07767,0.4409161 0.166356,0.2563395 c 0.213548,0.3290499 0.249142,0.719354 0.122345,1.3416224 -0.136703,0.670891 -0.275047,0.903175 -0.592905,0.995504 -0.17056,0.04953 -0.169358,0.04584 -0.336214,1.030502 -0.134043,0.79103 -0.340776,1.473928 -0.726627,2.400302 -0.277833,0.667036 -0.292766,0.726564 -0.278118,1.108809 l 0.01547,0.403931 0.673495,0.239949 c 0.979546,0.348995 1.130023,0.483897 1.29821,1.163918 0.0083,0.03353 0.233811,0.228858 0.501138,0.434042 1.034026,0.793667 2.644536,1.777706 3.361809,2.054098 0.627432,0.241768 1.498818,0.757852 1.967953,1.165531 0.471373,0.409613 0.942998,1.021875 1.180067,1.531963 0.169291,0.364229 0.368751,1.086494 0.368751,1.33525 v 0.160316 H 49.907822 37.432442 Z"
         id="path845" />
      <path
         style="fill:#ffeeaa;fill-opacity:1;stroke-width:0.0555313"
         d="m 10.703637,65.166469 c 0.116338,-0.798359 0.594792,-1.79903 1.156385,-2.418527 0.5758,-0.635165 1.188652,-0.99697 2.292756,-1.353576 0.350617,-0.113237 0.662761,-0.282509 1.30547,-0.707924 0.464576,-0.307506 1.324241,-0.864611 1.910373,-1.238016 l 1.065689,-0.678923 0.05478,-0.366577 0.05478,-0.366579 0.451425,-0.216435 c 0.248279,-0.119036 0.631254,-0.259512 0.851056,-0.312158 0.219797,-0.05267 0.429605,-0.10479 0.46624,-0.115871 0.04073,-0.01233 0.0666,-0.121774 0.0666,-0.281705 0,-0.202153 -0.092,-0.481883 -0.405042,-1.23161 -0.589233,-1.411155 -0.708904,-1.760078 -0.868243,-2.531429 -0.135256,-0.654776 -0.150489,-0.693353 -0.274191,-0.694471 -0.153847,-0.0013 -0.23323,-0.155316 -0.517336,-1.003155 -0.146218,-0.436391 -0.189164,-0.654895 -0.193804,-0.986241 -0.0056,-0.41227 -5.55e-4,-0.43057 0.166394,-0.582204 0.159536,-0.144902 0.168471,-0.171252 0.120178,-0.354156 -0.115728,-0.438246 -0.167188,-1.420003 -0.106061,-2.023297 0.24455,-2.413821 1.509281,-4.056734 3.550752,-4.612511 0.741311,-0.201817 2.12169,-0.109214 3.216403,0.21577 1.430534,0.424678 2.402099,1.434508 2.720529,2.827674 0.126472,0.553339 0.263401,1.769743 0.263401,2.339985 0,0.238689 -0.03494,0.632394 -0.07767,0.874898 l -0.07767,0.440916 0.166356,0.25634 c 0.213548,0.32905 0.249142,0.719354 0.122345,1.341622 -0.136703,0.670891 -0.275047,0.903175 -0.592905,0.995504 -0.17056,0.04953 -0.169358,0.04584 -0.336214,1.030502 -0.134043,0.79103 -0.340776,1.473928 -0.726627,2.400302 -0.277833,0.667036 -0.292766,0.726564 -0.278118,1.108809 l 0.01547,0.403931 0.673495,0.239949 c 0.979546,0.348995 1.130023,0.483897 1.298211,1.163918 0.0083,0.03353 0.233811,0.228858 0.501138,0.434042 1.034025,0.793667 2.644535,1.777706 3.361808,2.054098 0.627433,0.241768 1.498818,0.757852 1.967953,1.165531 0.471373,0.409613 0.942999,1.021875 1.180068,1.531963 0.169291,0.364229 0.368751,1.086494 0.368751,1.33525 v 0.160316 H 23.143183 10.667803 Z"
         id="path845-9" />
      <path
         style="fill:#ffeeaa;fill-opacity:1;stroke-width:0.0555313"
         d="m 64.308788,65.16647 c 0.116338,-0.798359 0.594792,-1.79903 1.156385,-2.418527 0.5758,-0.635165 1.188652,-0.99697 2.292756,-1.353576 0.350617,-0.113237 0.662761,-0.282509 1.30547,-0.707924 0.464576,-0.307506 1.324241,-0.864611 1.910373,-1.238016 l 1.065689,-0.678923 0.05478,-0.366577 0.05478,-0.366579 0.451425,-0.216435 c 0.248279,-0.119036 0.631254,-0.259512 0.851056,-0.312158 0.219797,-0.05267 0.429605,-0.10479 0.46624,-0.115871 0.04073,-0.01233 0.0666,-0.121774 0.0666,-0.281705 0,-0.202153 -0.092,-0.481883 -0.405042,-1.23161 -0.589233,-1.411155 -0.708904,-1.760078 -0.868243,-2.531429 -0.135256,-0.654776 -0.150489,-0.693353 -0.274191,-0.694472 -0.153847,-0.0013 -0.23323,-0.155316 -0.517336,-1.003155 -0.146218,-0.436391 -0.189164,-0.654894 -0.193804,-0.986241 -0.0056,-0.41227 -5.55e-4,-0.43057 0.166394,-0.582204 0.159536,-0.144902 0.168471,-0.171252 0.120178,-0.354155 -0.115728,-0.438247 -0.167188,-1.420004 -0.106061,-2.023298 0.24455,-2.413821 1.509281,-4.056734 3.550752,-4.612511 0.741311,-0.201817 2.12169,-0.109214 3.216403,0.21577 1.430534,0.424678 2.402099,1.434508 2.720529,2.827674 0.126472,0.553339 0.263401,1.769743 0.263401,2.339985 0,0.238689 -0.03494,0.632394 -0.07767,0.874898 l -0.07767,0.440916 0.166356,0.25634 c 0.213548,0.329051 0.249142,0.719354 0.122345,1.341623 -0.136703,0.670891 -0.275047,0.903174 -0.592905,0.995503 -0.17056,0.04953 -0.169358,0.04584 -0.336214,1.030503 -0.134043,0.79103 -0.340776,1.473928 -0.726627,2.400302 -0.277833,0.667036 -0.292766,0.726564 -0.278118,1.108809 l 0.01547,0.403931 0.673495,0.239949 c 0.979546,0.348995 1.130023,0.483897 1.298211,1.163918 0.0083,0.03353 0.233811,0.228858 0.501138,0.434042 1.034025,0.793667 2.644535,1.777706 3.361808,2.054098 0.627433,0.241768 1.498818,0.757852 1.967953,1.165531 0.471373,0.409613 0.942999,1.021875 1.180068,1.531963 0.169291,0.364229 0.368751,1.086494 0.368751,1.33525 v 0.160316 H 76.748334 64.272954 Z"
         id="path845-9-4" />
    </g>
  </g>
</svg>
